<?xml version="1.0" encoding="utf-8"?>
<!-- Generator: Adobe Illustrator 26.5.0, SVG Export Plug-In . SVG Version: 6.00 Build 0)  -->
<svg version="1.1" id="Layer_1" xmlns="http://www.w3.org/2000/svg" xmlns:xlink="http://www.w3.org/1999/xlink" x="0px" y="0px"
	 viewBox="0 0 375 353" style="enable-background:new 0 0 375 353;" xml:space="preserve">
<style type="text/css">
	.st0{fill-rule:evenodd;clip-rule:evenodd;fill:url(#SVGID_1_);}
</style>
<g>
	
		<linearGradient id="SVGID_1_" gradientUnits="userSpaceOnUse" x1="33.6557" y1="242.8053" x2="366.4217" y2="73.565" gradientTransform="matrix(1 0 0 -1 0 354)">
		<stop  offset="0" style="stop-color:#FFE91E"/>
		<stop  offset="1" style="stop-color:#00E8F7"/>
	</linearGradient>
	<path class="st0" d="M180.3-0.2c36-2.8,74.3,8.5,101.1,32.9c25.4,23.2,22.5,63,38,93.7c16.4,32.5,55.5,55.1,55.6,91.5
		c0.2,36.8-27.6,68.5-54.8,93.2c-25.4,23-58.6,34.6-92.5,40c-31,5-60.7-5.1-91.6-10.4c-35.4-6.1-77,1.6-103-23.1
		C6.8,292.6,7.7,251.2,3.8,215.3c-3.8-34.8-8.7-71.5,7.1-102.7c15.6-30.8,49.3-45.7,78-64.8C118.2,28.3,145.3,2.6,180.3-0.2z"/>
</g>
</svg>
