<?xml version="1.0" encoding="utf-8"?>
<!-- Generator: Adobe Illustrator 26.5.0, SVG Export Plug-In . SVG Version: 6.00 Build 0)  -->
<svg version="1.1" id="Layer_1" xmlns="http://www.w3.org/2000/svg" xmlns:xlink="http://www.w3.org/1999/xlink" x="0px" y="0px"
	 viewBox="0 0 672.7 473.8" style="enable-background:new 0 0 672.7 473.8;" xml:space="preserve">
<style type="text/css">
	.st0{fill-rule:evenodd;clip-rule:evenodd;fill:url(#SVGID_1_);}
</style>
<g>
	
		<linearGradient id="SVGID_1_" gradientUnits="userSpaceOnUse" x1="610.1078" y1="177.1719" x2="38.4732" y2="349.7612" gradientTransform="matrix(1 0 0 -1 0 501.5255)">
		<stop  offset="0" style="stop-color:#81FF1E"/>
		<stop  offset="1" style="stop-color:#F72C00"/>
	</linearGradient>
	<path class="st0" d="M585,269.1c-25.7,53.3-38.6,117.8-89.3,148.3c-49.1,29.5-110.9-1.8-167.7,6c-68.7,9.5-133,68.6-198.1,44.6
		C62.5,443.2,6.5,374.1,0.4,302.5c-6-70,63.9-119.4,100-179.7c25.5-42.5,32.6-106.9,80.1-120.7c49.5-14.4,88.8,50,139.9,56.6
		c38.4,5,72-25.5,110.7-24c80,3.1,187.3-29.7,231.3,37.2C702.1,132.5,616.5,204,585,269.1z"/>
</g>
</svg>
