<?xml version="1.0" encoding="utf-8"?>
<!-- Generator: Adobe Illustrator 26.5.0, SVG Export Plug-In . SVG Version: 6.00 Build 0)  -->
<svg version="1.1" id="Layer_1" xmlns="http://www.w3.org/2000/svg" xmlns:xlink="http://www.w3.org/1999/xlink" x="0px" y="0px"
	 viewBox="0 0 798.2 637.7" style="enable-background:new 0 0 798.2 637.7;" xml:space="preserve">
<style type="text/css">
	.st0{fill-rule:evenodd;clip-rule:evenodd;fill:url(#SVGID_1_);}
</style>
<g>
	
		<linearGradient id="SVGID_1_" gradientUnits="userSpaceOnUse" x1="656.5703" y1="727.0173" x2="106.0703" y2="216.5173" gradientTransform="matrix(1 0 0 -1 0 822)">
		<stop  offset="0" style="stop-color:#1E4FFF"/>
		<stop  offset="1" style="stop-color:#F70063"/>
	</linearGradient>
	<path class="st0" d="M679,227.2c59.3,79.8,152,181.4,107.5,270.2c-46,91.8-187.8,62.2-287.1,88.2c-63.1,16.5-122.3,32.2-187.4,36.2
		c-74.6,4.5-163.6,39.4-218.3-11.5c-55.2-51.3-13.2-144.9-29.3-218.5C49.4,323.7-15.1,264.2,3.2,196.8
		C21.8,128.5,94.1,91.4,155.6,56.3C213.9,23,278.1-8.4,344.4,2C408,12,445.3,74.2,498.7,110.1C559.7,151.1,635.2,168.3,679,227.2z"
		/>
</g>
</svg>
