<svg xmlns="http://www.w3.org/2000/svg" xmlns:xlink="http://www.w3.org/1999/xlink" width="500" zoomAndPan="magnify" viewBox="0 0 375 112.499997" height="150" preserveAspectRatio="xMidYMid meet" version="1.0"><defs><g/><clipPath id="5ce9269eb9"><path d="M 16 50 L 92 50 L 92 110 L 16 110 Z M 16 50 " clip-rule="nonzero"/></clipPath><clipPath id="31d5d8da48"><path d="M 34.019531 65.566406 C 51.519531 57.308594 82.800781 43.9375 89.75 54.398438 C 96.699219 64.863281 75.007812 91.488281 59.640625 101.699219 C 44.269531 111.90625 26.175781 111.703125 19.226562 101.242188 C 12.277344 90.78125 18.28125 72.992188 34.019531 65.566406 Z M 34.019531 65.566406 " clip-rule="nonzero"/></clipPath><clipPath id="296d81010f"><path d="M 6.367188 35 L 92 35 L 92 83 L 6.367188 83 Z M 6.367188 35 " clip-rule="nonzero"/></clipPath><clipPath id="678e43b5f1"><path d="M 40.136719 35.570312 C 60.714844 36.03125 91.003906 46.222656 91.246094 58.78125 C 91.488281 71.335938 58.890625 82.148438 40.441406 82.503906 C 21.996094 82.859375 6.84375 72.96875 6.601562 60.410156 C 6.359375 47.855469 20.289062 35.128906 40.136719 35.570312 Z M 40.136719 35.570312 " clip-rule="nonzero"/></clipPath><clipPath id="f11305dcb5"><path d="M 17 5 L 92 5 L 92 67 L 17 67 Z M 17 5 " clip-rule="nonzero"/></clipPath><clipPath id="aad6341e6b"><path d="M 61.015625 14.769531 C 74.390625 27.480469 97.175781 52.488281 89.976562 62.777344 C 82.78125 73.070312 50.066406 62.613281 34.949219 52.035156 C 19.828125 41.460938 13.40625 24.542969 20.605469 14.253906 C 27.800781 3.960938 45.554688 0.0820312 61.015625 14.769531 Z M 61.015625 14.769531 " clip-rule="nonzero"/></clipPath></defs><g fill="#000000" fill-opacity="1"><g transform="translate(108.149406, 76.53484)"><g><path d="M 18.75 -23.71875 L 27.734375 -43.171875 L 37.453125 -43.171875 L 23.28125 -15.65625 L 23.28125 0 L 14.234375 0 L 14.234375 -15.65625 L 0.0625 -43.171875 L 9.8125 -43.171875 Z M 18.75 -23.71875 "/></g></g></g><g fill="#000000" fill-opacity="1"><g transform="translate(145.688158, 76.53484)"><g><path d="M 1.953125 -16.34375 C 1.953125 -19.519531 2.566406 -22.351562 3.796875 -24.84375 C 5.023438 -27.34375 6.789062 -29.273438 9.09375 -30.640625 C 11.394531 -32.003906 14.066406 -32.6875 17.109375 -32.6875 C 21.441406 -32.6875 24.972656 -31.359375 27.703125 -28.703125 C 30.441406 -26.054688 31.972656 -22.457031 32.296875 -17.90625 L 32.359375 -15.71875 C 32.359375 -10.789062 30.984375 -6.835938 28.234375 -3.859375 C 25.484375 -0.890625 21.796875 0.59375 17.171875 0.59375 C 12.546875 0.59375 8.851562 -0.882812 6.09375 -3.84375 C 3.332031 -6.8125 1.953125 -10.847656 1.953125 -15.953125 Z M 10.53125 -15.71875 C 10.53125 -12.675781 11.101562 -10.347656 12.25 -8.734375 C 13.394531 -7.117188 15.035156 -6.3125 17.171875 -6.3125 C 19.242188 -6.3125 20.863281 -7.109375 22.03125 -8.703125 C 23.195312 -10.296875 23.78125 -12.84375 23.78125 -16.34375 C 23.78125 -19.320312 23.195312 -21.628906 22.03125 -23.265625 C 20.863281 -24.910156 19.222656 -25.734375 17.109375 -25.734375 C 15.015625 -25.734375 13.394531 -24.914062 12.25 -23.28125 C 11.101562 -21.65625 10.53125 -19.132812 10.53125 -15.71875 Z M 10.53125 -15.71875 "/></g></g></g><g fill="#000000" fill-opacity="1"><g transform="translate(180.024551, 76.53484)"><g><path d="M 22.515625 -3.265625 C 20.390625 -0.691406 17.460938 0.59375 13.734375 0.59375 C 10.296875 0.59375 7.671875 -0.394531 5.859375 -2.375 C 4.046875 -4.351562 3.117188 -7.25 3.078125 -11.0625 L 3.078125 -32.09375 L 11.65625 -32.09375 L 11.65625 -11.359375 C 11.65625 -8.015625 13.175781 -6.34375 16.21875 -6.34375 C 19.125 -6.34375 21.125 -7.351562 22.21875 -9.375 L 22.21875 -32.09375 L 30.8125 -32.09375 L 30.8125 0 L 22.75 0 Z M 22.515625 -3.265625 "/></g></g></g><g fill="#000000" fill-opacity="1"><g transform="translate(214.005127, 76.53484)"><g><path d="M 12.75 -7.140625 L 31.640625 -7.140625 L 31.640625 0 L 3.859375 0 L 3.859375 -43.171875 L 12.75 -43.171875 Z M 12.75 -7.140625 "/></g></g></g><g fill="#000000" fill-opacity="1"><g transform="translate(246.888605, 76.53484)"><g><path d="M 18.0625 0.59375 C 13.351562 0.59375 9.519531 -0.847656 6.5625 -3.734375 C 3.613281 -6.617188 2.140625 -10.460938 2.140625 -15.265625 L 2.140625 -16.109375 C 2.140625 -19.328125 2.757812 -22.207031 4 -24.75 C 5.25 -27.289062 7.015625 -29.25 9.296875 -30.625 C 11.578125 -32 14.179688 -32.6875 17.109375 -32.6875 C 21.492188 -32.6875 24.945312 -31.300781 27.46875 -28.53125 C 29.988281 -25.757812 31.25 -21.832031 31.25 -16.75 L 31.25 -13.25 L 10.828125 -13.25 C 11.097656 -11.15625 11.929688 -9.472656 13.328125 -8.203125 C 14.722656 -6.941406 16.488281 -6.3125 18.625 -6.3125 C 21.925781 -6.3125 24.503906 -7.507812 26.359375 -9.90625 L 30.578125 -5.1875 C 29.285156 -3.375 27.539062 -1.957031 25.34375 -0.9375 C 23.15625 0.0820312 20.726562 0.59375 18.0625 0.59375 Z M 17.078125 -25.734375 C 15.378906 -25.734375 14 -25.160156 12.9375 -24.015625 C 11.882812 -22.867188 11.207031 -21.226562 10.90625 -19.09375 L 22.828125 -19.09375 L 22.828125 -19.78125 C 22.796875 -21.675781 22.285156 -23.140625 21.296875 -24.171875 C 20.304688 -25.210938 18.898438 -25.734375 17.078125 -25.734375 Z M 17.078125 -25.734375 "/></g></g></g><g fill="#000000" fill-opacity="1"><g transform="translate(279.712779, 76.53484)"><g><path d="M 21.890625 0 C 21.492188 -0.769531 21.207031 -1.726562 21.03125 -2.875 C 18.945312 -0.5625 16.25 0.59375 12.9375 0.59375 C 9.789062 0.59375 7.179688 -0.3125 5.109375 -2.125 C 3.046875 -3.945312 2.015625 -6.242188 2.015625 -9.015625 C 2.015625 -12.410156 3.273438 -15.019531 5.796875 -16.84375 C 8.316406 -18.664062 11.957031 -19.585938 16.71875 -19.609375 L 20.671875 -19.609375 L 20.671875 -21.4375 C 20.671875 -22.925781 20.289062 -24.113281 19.53125 -25 C 18.769531 -25.882812 17.566406 -26.328125 15.921875 -26.328125 C 14.484375 -26.328125 13.351562 -25.984375 12.53125 -25.296875 C 11.707031 -24.609375 11.296875 -23.660156 11.296875 -22.453125 L 2.734375 -22.453125 C 2.734375 -24.304688 3.304688 -26.023438 4.453125 -27.609375 C 5.597656 -29.191406 7.21875 -30.429688 9.3125 -31.328125 C 11.40625 -32.234375 13.757812 -32.6875 16.375 -32.6875 C 20.320312 -32.6875 23.457031 -31.691406 25.78125 -29.703125 C 28.101562 -27.710938 29.265625 -24.921875 29.265625 -21.328125 L 29.265625 -7.40625 C 29.285156 -4.363281 29.710938 -2.0625 30.546875 -0.5 L 30.546875 0 Z M 14.796875 -5.953125 C 16.066406 -5.953125 17.234375 -6.234375 18.296875 -6.796875 C 19.367188 -7.367188 20.160156 -8.128906 20.671875 -9.078125 L 20.671875 -14.59375 L 17.46875 -14.59375 C 13.175781 -14.59375 10.890625 -13.109375 10.609375 -10.140625 L 10.59375 -9.640625 C 10.59375 -8.566406 10.96875 -7.679688 11.71875 -6.984375 C 12.46875 -6.296875 13.492188 -5.953125 14.796875 -5.953125 Z M 14.796875 -5.953125 "/></g></g></g><g fill="#000000" fill-opacity="1"><g transform="translate(312.270097, 76.53484)"><g><path d="M 21.328125 -24.046875 C 20.160156 -24.203125 19.128906 -24.28125 18.234375 -24.28125 C 14.992188 -24.28125 12.867188 -23.1875 11.859375 -21 L 11.859375 0 L 3.296875 0 L 3.296875 -32.09375 L 11.390625 -32.09375 L 11.625 -28.265625 C 13.34375 -31.210938 15.722656 -32.6875 18.765625 -32.6875 C 19.722656 -32.6875 20.613281 -32.554688 21.4375 -32.296875 Z M 21.328125 -24.046875 "/></g></g></g><g fill="#000000" fill-opacity="1"><g transform="translate(334.419745, 76.53484)"><g><path d="M 11.1875 -32.09375 L 11.453125 -28.375 C 13.742188 -31.25 16.816406 -32.6875 20.671875 -32.6875 C 24.066406 -32.6875 26.59375 -31.6875 28.25 -29.6875 C 29.914062 -27.6875 30.769531 -24.703125 30.8125 -20.734375 L 30.8125 0 L 22.234375 0 L 22.234375 -20.515625 C 22.234375 -22.335938 21.835938 -23.660156 21.046875 -24.484375 C 20.265625 -25.304688 18.953125 -25.71875 17.109375 -25.71875 C 14.703125 -25.71875 12.894531 -24.6875 11.6875 -22.625 L 11.6875 0 L 3.109375 0 L 3.109375 -32.09375 Z M 11.1875 -32.09375 "/></g></g></g><g clip-path="url(#5ce9269eb9)"><g clip-path="url(#31d5d8da48)"><path fill="#000000" d="M 12.34375 114.214844 L 98.554688 111.855469 L 96.632812 41.632812 L 10.421875 43.988281 Z M 12.34375 114.214844 " fill-opacity="1" fill-rule="nonzero"/></g></g><g clip-path="url(#296d81010f)"><g clip-path="url(#678e43b5f1)"><path fill="#000000" d="M 6.433594 85.183594 L 92.792969 82.824219 L 91.425781 32.800781 L 5.066406 35.164062 Z M 6.433594 85.183594 " fill-opacity="1" fill-rule="nonzero"/></g></g><g clip-path="url(#f11305dcb5)"><g clip-path="url(#aad6341e6b)"><path fill="#000000" d="M 13.46875 75.359375 L 99.171875 73.015625 L 97.113281 -2.207031 L 11.410156 0.136719 Z M 13.46875 75.359375 " fill-opacity="1" fill-rule="nonzero"/></g></g></svg>