<svg width="693" height="334" viewBox="0 0 693 334" fill="none" xmlns="http://www.w3.org/2000/svg">
<g filter="url(#filter0_f_12_51)">
<path fill-rule="evenodd" clip-rule="evenodd" d="M298.345 -218.575C334.388 -221.405 372.674 -210.063 399.405 -185.723C424.851 -162.553 421.859 -122.689 437.379 -91.9749C453.805 -59.4674 492.845 -36.9247 492.999 -0.503864C493.155 36.2716 465.447 67.989 438.161 92.6498C412.726 115.639 379.52 127.217 345.667 132.658C314.704 137.634 284.988 127.558 254.083 122.234C218.679 116.135 177.123 123.841 151.047 99.1308C124.786 74.2441 125.69 32.8607 121.814 -3.10934C118.06 -37.9417 113.077 -74.6058 128.958 -105.834C144.599 -136.59 178.271 -151.493 206.996 -170.612C236.217 -190.061 263.349 -215.826 298.345 -218.575Z" fill="url(#paint0_linear_12_51)"/>
</g>
<defs>
<filter id="filter0_f_12_51" x="-82" y="-419" width="775" height="753" filterUnits="userSpaceOnUse" color-interpolation-filters="sRGB">
<feFlood flood-opacity="0" result="BackgroundImageFix"/>
<feBlend mode="normal" in="SourceGraphic" in2="BackgroundImageFix" result="shape"/>
<feGaussianBlur stdDeviation="100" result="effect1_foregroundBlur_12_51"/>
</filter>
<linearGradient id="paint0_linear_12_51" x1="192.013" y1="-186.543" x2="524.779" y2="-17.3028" gradientUnits="userSpaceOnUse">
<stop stop-color="#FFE91E"/>
<stop offset="1" stop-color="#00E8F7"/>
</linearGradient>
</defs>
</svg>
