<svg id="Layer_3" data-name="Layer 3" xmlns="http://www.w3.org/2000/svg" viewBox="0 0 546.78 229.12"><defs><style>.cls-1{fill:#004f39;}.cls-2{fill:none;stroke:#004f39;stroke-linecap:round;stroke-width:2.33px;}</style></defs><title>LogoTagline_Green</title><path class="cls-1" d="M32.1,200.16h6.12c3.45,0,6.89,0,9.56,2.39a8.1,8.1,0,0,1,2.66,5.82A6.55,6.55,0,0,1,47,214.25a7.42,7.42,0,0,1,5.16,7.54,8.82,8.82,0,0,1-3.78,7.43c-2.38,1.61-5.9,1.85-8,1.85H32.1Zm5.81,12h1.87c1.33,0,4.85,0,4.85-3.25,0-1.86-1.11-3.42-4.33-3.42H37.91Zm0,13.56h2.91c1.09,0,5.66,0,5.66-4,0-1.3-.57-4.21-5.61-4.21h-3Z" transform="translate(-32.06 -21.23)"/><path class="cls-1" d="M76.09,207.89v23.18H71V228.7h-.19a6.49,6.49,0,0,1-5.91,3.15,9.26,9.26,0,0,1-7.74-3.71c-1.65-2.42-1.65-6.17-1.65-8.21v-12H61.1v11.76c0,1.87,0,7,4.82,7,3.48,0,4.58-3.24,4.58-6.94V207.89Z" transform="translate(-32.06 -21.23)"/><path class="cls-1" d="M80.62,200.16H86.2v5.08H80.62Zm0,7.73H86.2v23.18H80.62Z" transform="translate(-32.06 -21.23)"/><path class="cls-1" d="M90.55,200.16h5.59v30.91H90.55Z" transform="translate(-32.06 -21.23)"/><path class="cls-1" d="M124.13,231.07h-5.07v-2.9h-.19a8.57,8.57,0,0,1-7.28,3.68,12.4,12.4,0,0,1,0-24.76,8.57,8.57,0,0,1,7,2.9v-9.83h5.58Zm-12-4.46a7.23,7.23,0,0,0,0-14.44c-4.21,0-6.89,3.93-6.89,7.16A7,7,0,0,0,112.14,226.61Z" transform="translate(-32.06 -21.23)"/><path class="cls-1" d="M128,200.16h5.58v5.08H128Zm0,7.73h5.58v23.18H128Z" transform="translate(-32.06 -21.23)"/><path class="cls-1" d="M138.05,207.89h5.1V210a8.52,8.52,0,0,1,6.37-2.88,9.31,9.31,0,0,1,6.94,3.2c2.14,2.63,2.14,6.42,2.14,8.26v12.52H153V219.62c0-1.88,0-7.45-4.59-7.45a4.45,4.45,0,0,0-3.76,2.1c-1,1.36-1,3.77-1,5.83v11h-5.58Z" transform="translate(-32.06 -21.23)"/><path class="cls-1" d="M186.67,207.89v18.92c0,11-8.25,13.63-12.57,13.63-4.78,0-9.62-2.44-11.54-7.71h6.22a7,7,0,0,0,5.81,2.64c3,0,6.71-2.15,7-7.21l0,0a9,9,0,0,1-7.68,3.72,12.22,12.22,0,0,1-11.78-12.54,12,12,0,0,1,11.76-12.22c4.78,0,6.86,2.68,7.44,3.7h0v-2.9Zm-12.29,4.28a6.88,6.88,0,0,0-6.7,7.16,7,7,0,0,0,6.93,7.28c3.25,0,6.64-2.73,6.64-7.3A7.08,7.08,0,0,0,174.38,212.17Z" transform="translate(-32.06 -21.23)"/><path class="cls-1" d="M202.6,200.16h7c7.52,0,10.76,2.1,12.59,3.68,2.93,2.43,5.08,7,5.08,11.81,0,5.57-2.91,10.91-7.28,13.33-2.89,1.6-6.88,2.09-10.34,2.09h-7Zm5.66,25.57h1.11c3.16,0,5.08-.24,7.48-1.56a9.45,9.45,0,0,0,4.74-8.52,10,10,0,0,0-3.4-7.52c-2.23-2.14-5.35-2.63-8.86-2.63h-1.07Z" transform="translate(-32.06 -21.23)"/><path class="cls-1" d="M231.73,207.89h5.07V210h0c1.06-1.56,2.12-2.9,5-2.9h.35v5.36c-5.07.23-5.07,4.23-5.07,5.57v13h-5.4Z" transform="translate(-32.06 -21.23)"/><path class="cls-1" d="M249.14,222a6.65,6.65,0,0,0,6.39,4.62c2.43,0,4.29-.89,5.34-2.94h5.86a12,12,0,0,1-11.2,8.18,12.38,12.38,0,0,1,0-24.76,11.92,11.92,0,0,1,12,12,10.34,10.34,0,0,1-.46,2.88Zm12.74-4.51a6.13,6.13,0,0,0-6.35-5.31,6.44,6.44,0,0,0-6.45,5.31Z" transform="translate(-32.06 -21.23)"/><path class="cls-1" d="M294.23,231.07h-5.08v-2.91a11.38,11.38,0,0,1-8,3.69c-6.07,0-11.22-4.78-11.22-12.5,0-7.17,5.1-12.26,11.51-12.26a10.23,10.23,0,0,1,7.72,3.72h0v-2.92h5.08Zm-12-18.9c-4.54,0-6.92,4-6.92,7.44a6.89,6.89,0,0,0,6.92,7c3.77,0,6.69-3,6.69-7.24C288.92,214.58,285.46,212.17,282.23,212.17Z" transform="translate(-32.06 -21.23)"/><path class="cls-1" d="M298.47,207.89h5.08V210h0c.51-.78,2.1-2.87,6.11-2.87a8,8,0,0,1,6.66,3.7,8.46,8.46,0,0,1,7.47-3.7c4.54,0,6.71,2.41,7.53,3.68a11.16,11.16,0,0,1,1.82,6.73v13.57h-5.58V218.25c0-1.33,0-6.08-4.48-6.08a4.6,4.6,0,0,0-3.78,2.14c-.82,1.36-.8,3.71-.8,5.26v11.5H313V218.25c0-3.19-1.12-6.08-4.57-6.08-4.49,0-4.49,4.81-4.49,7.4v11.5h-5.42Z" transform="translate(-32.06 -21.23)"/><path class="cls-1" d="M346.81,214.25c-.47-1.85-1.61-2.08-2.15-2.08a2,2,0,0,0-2.14,2.08c0,1.33.85,1.61,3.8,2.47s6.59,2.35,6.59,6.93a8,8,0,0,1-8.2,8.2,8.87,8.87,0,0,1-6.93-3.14,7.91,7.91,0,0,1-1.65-5h5.63c.26,1.06.77,2.94,3,2.94a2.41,2.41,0,0,0,2.61-2.21c0-1.8-1.3-2.13-5.3-3.46a6.75,6.75,0,0,1-5.1-6.66c0-4.52,4-7.19,7.74-7.19a7.51,7.51,0,0,1,7.5,7.16Z" transform="translate(-32.06 -21.23)"/><path class="cls-1" d="M414.68,197.76c-.85,2.41-2.76,3.69-5.89,3.69l1-1.83a9.33,9.33,0,0,0-2.66-.3,37.47,37.47,0,0,0-7.47,1.06,36,36,0,0,0-7.16,1.91l-2.19,7.45a41,41,0,0,1-2.4,5.57c-1,1.36-2.59,4-4.8,7.76a29.78,29.78,0,0,0-3.74,8.3l-3.67-.79c.26-1.38,1.55-3.78,3.69-7.17a96.34,96.34,0,0,0,5.66-9.36,22.91,22.91,0,0,0,3.13-10.77l-.27.07L376.22,206c-1.87.79-3.73,1.41-5.4,2.19a2.18,2.18,0,0,1-1.78-.84,2.32,2.32,0,0,1-.36-1.88l.82-1.62a4.67,4.67,0,0,1,2.37-.53l1.14,0c.55,0,1,0,1.31,0a57.42,57.42,0,0,0,12.81-1.66c2.71-.78,6.95-1.87,12.56-3.42A56.09,56.09,0,0,1,412,196.42a6.76,6.76,0,0,1,1.62.24A2.6,2.6,0,0,1,414.68,197.76Z" transform="translate(-32.06 -21.23)"/><path class="cls-1" d="M427.67,222.28c0,2.94-2.13,5.13-6.39,6.92a30.47,30.47,0,0,1-10.15,1.87q-11.2,0-11.21-5.58c0-2.65,2.42-5.1,7.25-7.69,4.3-2.16,8-3.24,10.95-3.24a10.88,10.88,0,0,1,6.61,1.86A6.7,6.7,0,0,1,427.67,222.28ZM425,222a3.68,3.68,0,0,0-2.39-3.47,10.44,10.44,0,0,0-4.31-1,18.63,18.63,0,0,0-8.79,2.38c-3.2,1.6-5.55,3.5-6.9,5.86a10.53,10.53,0,0,0,7.71,3.22,26.92,26.92,0,0,0,8.78-1.58C423.13,226.05,425,224.19,425,222Z" transform="translate(-32.06 -21.23)"/><path class="cls-1" d="M448.58,218a12.91,12.91,0,0,1-.88,3.5,3.64,3.64,0,0,0-.5,1.89,67.44,67.44,0,0,1-.84,11.79c-2,10.13-6.92,15.19-15.16,15.19a14.18,14.18,0,0,1-5.66-1.34c-2.89-1.06-4.25-2.16-4.25-3.44a5.48,5.48,0,0,1,.33-1.64h.52a12.19,12.19,0,0,0,4.21,2.68,10,10,0,0,0,4.57,1.35c3.76,0,6.94-1.68,9.4-5.38a18.21,18.21,0,0,0,3.43-10.91,6.53,6.53,0,0,0-.54-2.42,3.44,3.44,0,0,0-1.39-.31,2.57,2.57,0,0,0-1,.24c-.5,0-.8.07-1.06.07-3.14,0-5.31-.06-6.67-.52-2.89-.59-4.25-2.12-4.25-4.09,0-3.13,1.81-5.8,5.1-8.17a16.84,16.84,0,0,1,9.35-3.22C446.91,213.25,448.58,214.83,448.58,218Zm-3-.71c0-.89-.87-1.42-2.91-1.42s-4.09.82-6.68,2.45c-2.7,1.86-4,3.73-4,5.61,0,2.13,2.12,3.18,6.14,3.18a12.85,12.85,0,0,0,3.18-.5c1.39-.34,2.16-1.07,2.16-1.88a1.44,1.44,0,0,0-.24-.85c-.06-.49-.24-.77-.24-1a19.9,19.9,0,0,1,1.81-3.29A4.85,4.85,0,0,0,445.62,217.27Z" transform="translate(-32.06 -21.23)"/><path class="cls-1" d="M471.47,227.91c-1,1.05-3.18,1.85-6.66,2.38a60.31,60.31,0,0,1-7.5.54c-5.31,0-8-1.56-8-4.54,0-3.72,2.7-6.92,8.25-9.58a37.49,37.49,0,0,1,5.91-2.21c2.09.35,3.42.82,4,.9,1.36.51,2.13,1.78,2.13,3.64,0,1.63-1.07,3-3.19,3.82a13.09,13.09,0,0,1-5.38,1.29c-2.92,0-5-.5-6.32-1.32-1.43.78-2.22,1.64-2.22,2.92,0,2.12,1.87,3.18,5.64,3.18,1.37,0,3.14-.2,4.85-.27C467.5,228.16,470.21,227.91,471.47,227.91Zm-4.8-9a5.15,5.15,0,0,0-3.46-1.41,6.84,6.84,0,0,0-2.65.57s-.81.51-2.4,1.32a4.15,4.15,0,0,0,3.78,2.19A5.57,5.57,0,0,0,466.67,218.87Z" transform="translate(-32.06 -21.23)"/><path class="cls-1" d="M493.64,202.84a6,6,0,0,1-.8,2.64c-.25.49-1.28,1.82-2.92,4l2.41,1.58a2.48,2.48,0,0,1,1.11,2.42l0,.52s-.78-.25-2.14-.75a6.92,6.92,0,0,0-2.12-.32c-1.64,0-4.25,1.85-7.45,5.36q-4.83,5.53-4.83,8c0,1.57,1.35,2.65,4.22,3.41a30,30,0,0,0,5.87.58c.83,0,1.65,0,2.47-.07,0,.06.21.33.49.82a15.6,15.6,0,0,1-5.85,1.09c-7,0-10.46-1.81-10.46-5.1,0-2.1,1.66-5.05,5.15-9l4.17-4.53-1.76,0a10.23,10.23,0,0,0-2.72.54,27.7,27.7,0,0,1-4,1.29,3.18,3.18,0,0,1-1.55-.52,2.08,2.08,0,0,1-.6-1.3c0-1.12,1.36-1.86,4.07-1.86l1.29,0a4,4,0,0,0,1.29.19,13.28,13.28,0,0,0,5.88-1.29,10.65,10.65,0,0,0,4-4.26c.48-.58,1.34-2.65,2.91-5.68a1.53,1.53,0,0,1,1.13.82A2.49,2.49,0,0,1,493.64,202.84Z" transform="translate(-32.06 -21.23)"/><path class="cls-1" d="M523.82,216.47c0,1.54-1,4-2.89,7.65-1.85,3.5-2.7,5.87-2.7,6.95a5.55,5.55,0,0,0,.78,2.66,7,7,0,0,1-2.66.82,1.63,1.63,0,0,1-1.81-1.83c0-1.14,1-3.74,2.86-7.47s2.69-6.21,2.69-7.75c0-.23,0-.51,0-.83a2.23,2.23,0,0,1-.21-.84A29.34,29.34,0,0,0,506.53,221c-4.34,3.16-7.49,6.69-9.14,10.9a23.65,23.65,0,0,0-3.16-.8,26.8,26.8,0,0,1,3.22-5c.77-.84,2.84-3.49,6.06-7.77,2.39-3.19,3.79-5.31,4.52-6.38.07-.28,1.09-2.43,2.73-6.44a19.17,19.17,0,0,1,3.43-5.81c.31.24.78.5,1.11.76a1,1,0,0,1,.56,1.05c0,.35-2.66,5.93-7.81,16.58,2.66-1.1,4.85-2.13,6.92-2.94,3.74-1.59,5.71-2.38,6.23-2.38a1.91,1.91,0,0,1,1.3.49A4.46,4.46,0,0,1,523.82,216.47Z" transform="translate(-32.06 -21.23)"/><path class="cls-1" d="M546.28,227.91c-.86,1.05-3.19,1.85-6.67,2.38a58.13,58.13,0,0,1-7.49.54c-5.32,0-8-1.56-8-4.54,0-3.72,2.87-6.92,8.26-9.58a39.77,39.77,0,0,1,6.07-2.21c1.92.35,3.26.82,3.83.9,1.53.51,2.12,1.78,2.12,3.64,0,1.63-1,3-3.19,3.82a12.42,12.42,0,0,1-5.38,1.29c-2.91,0-4.85-.5-6.15-1.32-1.58.78-2.38,1.64-2.38,2.92,0,2.12,1.89,3.18,5.82,3.18,1.36,0,3-.2,4.84-.27C542.3,228.16,545.17,227.91,546.28,227.91Zm-4.82-9a4.82,4.82,0,0,0-3.45-1.41,6,6,0,0,0-2.48.57,19.75,19.75,0,0,0-2.39,1.32,4,4,0,0,0,3.77,2.19A5.11,5.11,0,0,0,541.46,218.87Z" transform="translate(-32.06 -21.23)"/><path class="cls-1" d="M567.06,220.38l-7.43-2.4c-1.85,0-3.45,1.12-4.8,3.56a48.78,48.78,0,0,0-2.44,6.07c-1.11,3.18-3.15,4.6-5.63,4.6.07-1.14.88-3,2.43-5.15a26,26,0,0,0,2.9-5.52,32.5,32.5,0,0,0,.52-4.63,6.29,6.29,0,0,1,.59-2.93c.55-1.53,1.12-2.14,1.88-2.33l.84.19.51,3.2c.25.8,1,1.12,2.33,1.12h2.17C564.45,216.12,566.55,217.47,567.06,220.38Z" transform="translate(-32.06 -21.23)"/><path class="cls-2" d="M384.47,243.68c65.62-13.39,129.45-6.69,162.9,0" transform="translate(-32.06 -21.23)"/><polygon class="cls-1" points="41.06 16.35 154.31 16.35 160.17 0.3 46.41 0.3 41.06 16.35"/><polygon class="cls-1" points="166.9 16.87 239.74 16.35 244.27 1.12 171.95 0.6 166.9 16.87"/><polygon class="cls-1" points="130.01 123.88 202.68 123.36 207.21 108.13 135.05 107.62 130.01 123.88"/><polygon class="cls-1" points="215.14 124.16 292.03 124.39 297.9 108.17 220.02 107.9 215.14 124.16"/><polygon class="cls-1" points="3.96 124.39 38.48 24.64 71.79 24.64 37.1 124.75 3.96 124.39"/><polygon class="cls-1" points="44.8 124.39 79.32 24.64 112.63 24.64 77.94 124.75 44.8 124.39"/><polygon class="cls-1" points="84.61 124.39 119.3 24.64 152.45 24.64 117.75 124.75 84.61 124.39"/><polygon class="cls-1" points="222.18 99.59 256.87 0 290.18 0 255.49 100.1 222.18 99.59"/><polygon class="cls-1" points="267.2 99.59 301.72 0 335.03 0 300.34 100.1 267.2 99.59"/><polygon class="cls-1" points="178.07 99.91 195.47 49.19 228.78 49.19 211.22 100.43 178.07 99.91"/><polygon class="cls-1" points="146.29 75.81 163.69 25.08 196.99 25.08 179.44 76.16 146.29 75.81"/><path class="cls-1" d="M35.23,161.68v4.53h6.93v2.67H35.23v8.85H32.06V159H42.42v2.67Z" transform="translate(-32.06 -21.23)"/><path class="cls-1" d="M63,161.68v4.53h8v2.67H63v6.19h8.27v2.66H59.85V159H71.29v2.67Z" transform="translate(-32.06 -21.23)"/><path class="cls-1" d="M90.29,175.07V161.68h1.52c2.45,0,4.07.31,5.41,1.33a6.4,6.4,0,0,1,0,10.72c-1.38,1-3,1.34-5.41,1.34Zm-3,2.66h4.27c3.72,0,5.4-.32,7.51-1.67a9.09,9.09,0,0,0,4.22-7.67,8.84,8.84,0,0,0-4-7.53c-2.09-1.33-4.2-1.85-7.71-1.85H87.29Z" transform="translate(-32.06 -21.23)"/><path class="cls-1" d="M122.56,161.68v4.53h8v2.67h-8v6.19h8.28v2.66H119.4V159h11.44v2.67Z" transform="translate(-32.06 -21.23)"/><path class="cls-1" d="M150.88,167.59v-5.91H152c2.9,0,4.46,1,4.46,2.92s-1.58,3-4.5,3Zm4,2.14a5.24,5.24,0,0,0,4.55-5.15,5.41,5.41,0,0,0-2.42-4.5c-1.33-.78-2.89-1.07-5.56-1.07h-3.7v18.72h3.17V170h.54l5.89,7.72h3.91Z" transform="translate(-32.06 -21.23)"/><path class="cls-1" d="M185.89,170.51H179.7l3.19-6.39Zm1.3,2.67,2.16,4.55h3.43l-9.86-20-10.17,20h3.43l2.2-4.55Z" transform="translate(-32.06 -21.23)"/><path class="cls-1" d="M211.45,174.55h6.13v2.66h-9.29V158.49h3.16Z" transform="translate(-32.06 -21.23)"/><path class="cls-1" d="M266,164.35a8,8,0,0,0-5.44-2.11,7.41,7.41,0,0,0-7.67,7.19c0,4,3.42,7,7.72,7a8,8,0,0,0,5.39-2.13v3.44a10.12,10.12,0,0,1-5.41,1.36c-6.11,0-10.7-4.27-10.7-9.68s4.85-9.81,10.7-9.81a11.47,11.47,0,0,1,5.41,1.34Z" transform="translate(-32.06 -21.23)"/><path class="cls-1" d="M284.12,167.59v-5.91h1.26c2.73,0,4.29,1,4.29,2.92s-1.58,3-4.51,3Zm4,2.14a5.23,5.23,0,0,0,4.55-5.15,5,5,0,0,0-2.43-4.5c-1.32-.78-2.88-1.07-5.55-1.07h-3.53v18.72h3V170h.55l6.05,7.72h3.77Z" transform="translate(-32.06 -21.23)"/><path class="cls-1" d="M313,161.68v4.53h8v2.67h-8v6.19h8.27v2.66H310V159h11.27v2.67Z" transform="translate(-32.06 -21.23)"/><path class="cls-1" d="M341.25,175.07V161.68h1.54c2.43,0,4,.31,5.4,1.33a6.4,6.4,0,0,1,0,10.72c-1.38,1-3,1.34-5.4,1.34Zm-3,2.66h4.28c3.72,0,5.39-.32,7.5-1.67a9.07,9.07,0,0,0,4.22-7.67,8.85,8.85,0,0,0-4-7.53c-2.09-1.33-4.21-1.85-7.72-1.85h-4.29Z" transform="translate(-32.06 -21.23)"/><path class="cls-1" d="M372.5,177.21h-3V158.49h3Z" transform="translate(-32.06 -21.23)"/><path class="cls-1" d="M397.05,177.73h-3v-16h-4.78V159h12.56v2.67h-4.78Z" transform="translate(-32.06 -21.23)"/><path class="cls-1" d="M436.53,170.78a7.19,7.19,0,0,0,.57,3.22,4.67,4.67,0,0,0,4,2.05,4.15,4.15,0,0,0,3.78-2.05,5.27,5.27,0,0,0,.75-3.22V159.53h3v12c0,4-3.22,7-7.53,7s-7.7-2.94-7.7-7v-12h3.17Z" transform="translate(-32.06 -21.23)"/><path class="cls-1" d="M465.59,157.71l11.25,14.37V159h2.4v20L468,164.63v13.1h-2.41Z" transform="translate(-32.06 -21.23)"/><path class="cls-1" d="M550,157.19l11.26,14.37V158.5h2.38v20L552.4,164.12v13.09H550Z" transform="translate(-32.06 -21.23)"/><path class="cls-1" d="M499,177.73h-3.18V159H499Z" transform="translate(-32.06 -21.23)"/><path class="cls-1" d="M524.87,161.37c3.18,0,5.59,3,5.59,7s-2.6,7.15-5.59,7.15c-3.16,0-5.59-3.17-5.59-7.15S521.69,161.37,524.87,161.37Zm0-2.66c-4.47,0-8,4.31-8,9.69,0,5.54,3.47,9.79,8,9.79,4.29,0,7.77-4.46,7.77-9.81S529.17,158.71,524.88,158.71Z" transform="translate(-32.06 -21.23)"/><path class="cls-1" d="M379.93,60.53l6.93-39h15.48L405,45.87l11.21-24.32h15.32l-6.76,39H413.27l2-11.8,1.28-6.11,1.88-7h0L406.86,60.53h-9l-2.68-24.89h0l-.51,5.67-.8,6.1-2.38,13.12Z" transform="translate(-32.06 -21.23)"/><path class="cls-1" d="M397.51,73.33a35.32,35.32,0,0,0-13-.3c-2.71.59-2.5,1.38-2.95,2.74C380.5,80.8,397,78.66,395.73,92c-.84,9.11-8.1,11.44-14.74,11.74-8.25.51-15.75-1.55-15.75-2.4l1.85-7.17a16.36,16.36,0,0,0,4,1.07,31,31,0,0,0,6.41.47c3.21,0,7.21-2.06,7.49-4,1.06-5.87-14.13-4.07-14.37-15.5,0-6.16,6.93-11.8,16.78-11.74,8.27.22,11.8,1.55,11.8,1.55Z" transform="translate(-32.06 -21.23)"/><path class="cls-1" d="M360.21,107.46l10.34.3-5.09,23.77c-.75,4,.61,8,4.33,7.73,4.56-.25,6.17-1.92,7.24-7.73l5-23.77,10.42-.24-3.25,22.69c-2.37,12.76-11,16.84-22.06,16.84-7.26,0-13.67-8-12.05-16.83Z" transform="translate(-32.06 -21.23)"/><path class="cls-1" d="M429.87,60l4-25.18h7.23l-4,25.18Z" transform="translate(-32.06 -21.23)"/><path class="cls-1" d="M465.62,40.73c0-.77-8.49-1-10.93-.47-2.43.73-4.52,2.6-5.3,7.43-.55,3.49,1.79,6.43,3.41,6.92,2.17.53,7.24,1.36,9.63,0l.23,5.33c-.47,1.32-6.61,1.08-10.67.79-4.76-.31-11-5.09-9.82-13.34S449.86,33.56,456,33.56c6.91,0,10.43,1.63,10.43,1.63Z" transform="translate(-32.06 -21.23)"/><path class="cls-1" d="M465.86,60l3.81-25.18h7.4l-1.34,8.55h6.94l1.17-8.55h7.39l-4,25.18H480l1.41-9.68h-6.77L473.1,60Z" transform="translate(-32.06 -21.23)"/><path class="cls-1" d="M490.71,60l4-25.18h7.24L498,60Z" transform="translate(-32.06 -21.23)"/><path class="cls-1" d="M522.8,55.72a16.79,16.79,0,0,1-4,4.49c-1.09.61-4,.61-7.26.55-5.64-.26-10.14-4.23-8.79-13,1.3-8,6.63-13.62,13.84-13.62,5.35,0,6.45.47,8.07,1.79L523.82,41a33.26,33.26,0,0,0-8.31-.72c-2.91,0-4.77,2.94-5.52,7.45-.54,3.68,0,6.9,3.7,6.9a5.18,5.18,0,0,0,4.23-2.92h-3.21l.82-5.57h9.92Z" transform="translate(-32.06 -21.23)"/><path class="cls-1" d="M542,50.09h-5.1l4.33-8Zm-10.38,9.66,1.34-3.25,9.63,0,.28,3.43h7.41l-4-25.35h-7.44L524.4,59.75Z" transform="translate(-32.06 -21.23)"/><path class="cls-1" d="M570,48.54l.57-5.68,1.29-8h7l-4,25.18h-6.74l-5.83-13.68-.57,5.84L560.41,60h-6.95l4-25.18h6.74Z" transform="translate(-32.06 -21.23)"/><path class="cls-1" d="M408.52,135l.56-5.67,1.26-8.19h6.43l-3.7,25.33h-6.2l-5.33-13.68-.55,5.68-1.26,8h-6.42l3.7-25.33h6.2Z" transform="translate(-32.06 -21.23)"/><path class="cls-1" d="M417.29,146.48l3.53-25.33h6.86L424,146.48Z" transform="translate(-32.06 -21.23)"/><path class="cls-1" d="M430.41,121.15h6.88L438.4,138l6.14-16.83h6.72l-10.71,25.33h-6.7Z" transform="translate(-32.06 -21.23)"/><path class="cls-1" d="M450.45,146.48l3.69-25.33h16.62l-.82,5.88H460l-.53,3.7H468l-1,5.88h-8.34l-.56,4h10.41l-1,5.88Z" transform="translate(-32.06 -21.23)"/><path class="cls-1" d="M480.09,127h3.17a2.17,2.17,0,0,1,2.38,2.66c-.26,1.83-1.55,2.4-3.49,2.4h-2.67Zm.53,10.64c3.18,0,3.45,1.08,2.95,4.49a24.26,24.26,0,0,0-.27,4.32l9.25,0,0-.8c-.79,0-1.33-1.05-.82-4.3.78-5.25-2.09-5.8-4-6.67,2.45-.8,3.81-3.39,4.3-6.33.6-4.84-1.3-7.2-8-7.2H474.2l-3.51,25.33h6.69l1.29-8.81Z" transform="translate(-32.06 -21.23)"/><path class="cls-1" d="M514.52,126.94c-.82-.8-5.35-1.53-6.22-1.57a19.09,19.09,0,0,0-4.25.23c-1.31.54-2.4,1.64-2.4,2.49,0,4,12.6,1.34,11.26,10.63-.8,5.88-6.2,8.51-12,8.51-5.37,0-7.23-1.26-7.23-1.26l.78-5.09c0,1,7.15.5,7.73.5,1.64,0,2.92-.75,3-1.87.54-3.77-11.54-1.29-10.2-10.9.8-5.36,4.86-8,10.11-8a51.46,51.46,0,0,1,10.43,1.11Z" transform="translate(-32.06 -21.23)"/><path class="cls-1" d="M513.72,146.48l3.7-25.33h6.68l-3.52,25.33Z" transform="translate(-32.06 -21.23)"/><path class="cls-1" d="M527.25,121.15H546l-.85,6.66H539l-2.68,18.67h-6.68l2.66-18.67h-6.09Z" transform="translate(-32.06 -21.23)"/><path class="cls-1" d="M558.55,146.51l-7.48.47,1-9.82-5.34-16,7.76,0,3,9.85,6.69-9.34h8.52L560.4,137.34Z" transform="translate(-32.06 -21.23)"/><path class="cls-1" d="M398.88,77.3h16.85L414.91,84h-5.38l-2.4,18.68H401L403.43,84h-5.38Z" transform="translate(-32.06 -21.23)"/><path class="cls-1" d="M426.37,93.09l-5.31-.24,4.51-8ZM414.6,102.9l2.2-3.71,9.87,0,.28,3.41h6.1L429.62,77.3h-6.16l-14.92,25.6Z" transform="translate(-32.06 -21.23)"/><path class="cls-1" d="M437.33,77.3h17l-1,6.66H448l-2.41,18.68h-6.1L441.9,84h-5.39Z" transform="translate(-32.06 -21.23)"/><path class="cls-1" d="M453.85,102.64l3.23-25.34h15l-.78,5.89H462.4l-.51,3.52h7.7l-.79,6.05h-7.7l-.52,4h9.36l-.79,5.88Z" transform="translate(-32.06 -21.23)"/><path class="cls-1" d="M571.6,145.62c-3.14,0-5.08-2.59-5.08-6.06s1.94-5.89,5.08-5.89c2.94,0,5.08,2.42,5.08,5.89S574.54,145.62,571.6,145.62Zm0,1.7c3.76,0,6.92-3.48,6.92-7.76s-3.16-7.75-6.92-7.75c-4,0-6.94,3.48-6.94,7.75S567.65,147.32,571.6,147.32Zm1.6-7c1.33-.21,1.93-.77,1.93-2.36,0-1.9-.85-2.46-2.76-2.46h-3.68v8.32h1.59v-3.5h1.3l1.62,3.5h1.85ZM570.28,139v-2.18h1.64c.76,0,1.84-.21,1.84,1,0,.88-.56,1.14-1.37,1.13Z" transform="translate(-32.06 -21.23)"/><text x="-32.06" y="-21.23"/></svg>